<?xml version="1.0" encoding="UTF-8"?>
<svg version="1.1" xmlns="http://www.w3.org/2000/svg" width="1024" height="1024">
<path d="M0 0 C0.66 0 1.32 0 2 0 C2 0.66 2 1.32 2 2 C3.75032844 1.85816304 5.50025534 1.71136571 7.25 1.5625 C8.22453125 1.48128906 9.1990625 1.40007812 10.203125 1.31640625 C12.92074826 1.08226251 12.92074826 1.08226251 15.171875 0.40234375 C17 0 17 0 20 1 C20.99 0.67 21.98 0.34 23 0 C23.495 0.495 23.495 0.495 24 1 C26.05396726 0.59070014 26.05396726 0.59070014 28 0 C28 0.33 28 0.66 28 1 C32.80517404 1.0942191 37.29869807 1.13970956 42 0 C42.66 0 43.32 0 44 0 C44.495 0.495 44.495 0.495 45 1 C45 0.67 45 0.34 45 0 C47.64 0 50.28 0 53 0 C53 0.66 53 1.32 53 2 C53.94875 1.814375 54.8975 1.62875 55.875 1.4375 C59 1 59 1 61 2 C61 1.34 61 0.68 61 0 C62.11375 0.165 63.2275 0.33 64.375 0.5 C69.39615073 1.06417424 74.39094282 1.11300105 79.4375 1.125 C80.24300293 1.12951172 81.04850586 1.13402344 81.87841797 1.13867188 C86.07258785 1.23801128 86.07258785 1.23801128 90 0 C90 0.66 90 1.32 90 2 C90.56509277 1.9592334 91.13018555 1.9184668 91.71240234 1.87646484 C94.26597672 1.69838179 96.8203257 1.5365024 99.375 1.375 C100.26445313 1.31054688 101.15390625 1.24609375 102.0703125 1.1796875 C103.34648438 1.10234375 103.34648438 1.10234375 104.6484375 1.0234375 C105.82672119 0.94488525 105.82672119 0.94488525 107.02880859 0.86474609 C109 1 109 1 111 3 C111.17532289 5.86888581 111.23137614 8.63992645 111.1953125 11.5078125 C111.1924826 12.34843231 111.18965271 13.18905212 111.18673706 14.05514526 C111.1755243 16.74524046 111.15041803 19.4350051 111.125 22.125 C111.1149716 23.94660978 111.10584551 25.76822477 111.09765625 27.58984375 C111.07558142 32.06002358 111.04104434 36.52995571 111 41 C106.58412062 41.18997376 102.16744982 41.35164818 97.75 41.5 C97.02723877 41.52434113 96.30447754 41.54868225 95.55981445 41.57376099 C83.346875 41.96385848 71.13977417 42.02937514 58.921875 41.99609375 C57.79502415 41.99346716 57.79502415 41.99346716 56.64540863 41.99078751 C48.97289919 41.97264795 41.30060568 41.94527797 33.6282692 41.88981533 C30.69080554 41.87047625 27.75334401 41.85928021 24.81583405 41.84968758 C22.78364846 41.84014839 20.75152305 41.81972114 18.71942139 41.79893494 C7.0053347 41.76761612 -5.85870843 42.23535883 -14.8515625 50.75390625 C-24.55368374 62.58284718 -23.20730451 79.02476643 -23.1875 93.4375 C-23.18689575 94.24136139 -23.1862915 95.04522278 -23.18566895 95.8734436 C-24.29722818 119.89161162 -24.29722818 119.89161162 -15.20703125 140.98046875 C-8.47162811 147.2989804 -1.24486189 150.08661435 7.9987793 150.16113281 C8.96716232 150.17074036 9.93554535 150.1803479 10.93327332 150.19024658 C11.96978531 150.19449646 13.0062973 150.19874634 14.07421875 150.203125 C15.15322952 150.20882507 16.2322403 150.21452515 17.34394836 150.22039795 C19.6260175 150.22983297 21.90810017 150.23637597 24.19018555 150.24023438 C27.65763547 150.24991661 31.12448652 150.28094538 34.59179688 150.3125 C36.81510067 150.31903309 39.03840868 150.32428236 41.26171875 150.328125 C42.80130501 150.3466452 42.80130501 150.3466452 44.37199402 150.36553955 C52.17386138 150.34174814 59.39928824 149.40047451 66 145 C67.59013475 135.45919149 67 125.67241209 67 116 C51.82 115.67 36.64 115.34 21 115 C21 103.78 21 92.56 21 81 C24.25119829 79.37440085 27.82545418 79.87092792 31.39697266 79.88647461 C32.27939825 79.88635407 33.16182384 79.88623354 34.07098961 79.88610935 C36.93537263 79.88685742 39.79969107 79.89448084 42.6640625 79.90234375 C44.42928028 79.9038135 46.19449849 79.90483401 47.9597168 79.90539551 C54.51481783 79.91064458 61.06990955 79.92460571 67.625 79.9375 C89.590625 79.9684375 89.590625 79.9684375 112 80 C112 111.02 112 142.04 112 174 C91.97864464 183.42181429 91.97864464 183.42181429 85.73022461 184.96289062 C84.95059073 185.16004921 84.17095686 185.35720779 83.36769772 185.56034088 C74.07433251 187.71060485 64.80632627 187.68572166 55.31640625 187.59375 C53.39932837 187.5920322 51.48224813 187.59211134 49.56517029 187.59387207 C45.58593673 187.59223534 41.60727784 187.57383461 37.62817383 187.54199219 C32.55940133 187.50212969 27.49137082 187.49797966 22.42247105 187.50545502 C18.47848355 187.50853964 14.53465915 187.4963544 10.59071159 187.47932434 C8.72223877 187.47235951 6.85374752 187.46916177 4.98526192 187.47001648 C-13.54304852 187.45711822 -29.7891166 184.30909367 -45 173 C-46.010625 172.278125 -47.02125 171.55625 -48.0625 170.8125 C-58.04004412 162.13397132 -64.2517105 149.19464517 -67.3125 136.5625 C-67.55178223 135.57999268 -67.55178223 135.57999268 -67.79589844 134.57763672 C-70.67324833 121.49617513 -70.24132985 107.82382253 -70.25 94.5 C-70.25101212 93.10086365 -70.25101212 93.10086365 -70.25204468 91.67346191 C-70.22144981 65.05992844 -68.45687484 41.13751606 -49.3125 20.75 C-35.30407519 7.44626729 -18.70091737 2.6464671 0 1 C0 0.67 0 0.34 0 0 Z " fill="#7D3CFC" transform="translate(579,400)"/>
<path d="M0 0 C14.45702907 -0.09068779 28.91386647 -0.16393864 43.37111664 -0.20724869 C50.08557666 -0.22777562 56.79981784 -0.25621529 63.51416016 -0.30175781 C70.00459292 -0.34550165 76.49482843 -0.36919713 82.98539734 -0.37950897 C85.4506897 -0.38684936 87.91597236 -0.40118208 90.38117981 -0.42292023 C112.81489961 -0.61271376 132.68589841 1.15547571 149.71484375 17.4921875 C163.14437757 32.23024 165.71296397 48.44093912 165.13183594 67.61816406 C164.54172846 78.27943921 160.03851922 89.89040177 153 98 C152.34 98 151.68 98 151 98 C150.75894531 98.59039062 150.51789063 99.18078125 150.26953125 99.7890625 C145.68838153 107.76731093 134.01391907 111.57084654 126 115 C131.04867315 121.27496585 136.20734953 127.43063087 141.5 133.5 C146.78996211 139.5704358 151.93986569 145.73596756 157 152 C162.83240131 159.18941807 162.83240131 159.18941807 168.80078125 166.265625 C173.9672215 172.27203745 178.84845542 178.22089557 183 185 C173.86760093 186.57335139 164.64262367 186.26226156 155.40356445 186.19750977 C153.17795042 186.19084187 150.95218987 186.20383407 148.72680664 186.23657227 C130.2717261 186.49711779 130.2717261 186.49711779 124.93408203 182.97949219 C122.87433622 180.41819606 121.44851769 177.94271057 120 175 C118.96502001 173.59764101 117.89834357 172.21795073 116.796875 170.8671875 C115.77991979 169.53747462 114.76431792 168.20672573 113.75 166.875 C113.19626709 166.14982178 112.64253418 165.42464355 112.07202148 164.67749023 C108.37404902 159.82662975 104.71160267 154.95017117 101.0625 150.0625 C93.22487083 139.56802508 85.18223165 129.22778957 77 119 C66.77 118.67 56.54 118.34 46 118 C46 140.11 46 162.22 46 185 C30.82 185.33 15.64 185.66 0 186 C0 151.02 0 116.04 0 80 C7.87440996 77.75016858 7.87440996 77.75016858 11.38778687 77.78640747 C12.58172813 77.79095444 12.58172813 77.79095444 13.79978943 77.79559326 C14.64880325 77.80906799 15.49781708 77.82254272 16.37255859 77.83642578 C17.28571335 77.8425589 18.1988681 77.84869202 19.13969421 77.85501099 C21.11271088 77.86926235 23.08569919 77.88801127 25.05863571 77.91080093 C28.186947 77.94574263 31.31505171 77.96623068 34.44351196 77.9826355 C43.33493577 78.0313993 52.22608069 78.10256584 61.1171875 78.19189453 C66.56523433 78.24562195 72.01312116 78.27960078 77.46138382 78.30163193 C79.53057395 78.31400286 81.5997338 78.33395235 83.66877365 78.3617897 C86.56893699 78.40046326 89.46826484 78.41404655 92.36865234 78.42236328 C93.21361771 78.43988647 94.05858307 78.45740967 94.92915344 78.47546387 C101.9956088 78.45247024 107.93423474 76.5154997 113.4375 72 C116.64204662 65.84727048 117.91114973 58.81372123 116 52.0625 C113.86800591 46.8551516 110.5776867 44.35667721 105.625 41.75 C99.01594191 39.86169769 92.19252713 39.84035296 85.37109375 39.79467773 C84.44333633 39.78477814 83.51557892 39.77487854 82.55970764 39.76467896 C79.51899697 39.73330516 76.47827071 39.70840275 73.4375 39.68359375 C71.31900649 39.66300335 69.20051689 39.64200635 67.08203125 39.62062073 C61.52548406 39.56561542 55.96890113 39.51611175 50.41229248 39.46777344 C44.73446498 39.41740045 39.05668894 39.36179711 33.37890625 39.30664062 C22.25264663 39.19932278 11.12634292 39.09830377 0 39 C0 26.13 0 13.26 0 0 Z " fill="#3695F6" transform="translate(328,402)"/>
<path d="M0 0 C5.85223198 2.21477373 10.44401029 5.26265182 15.4375 9 C17.0379481 10.1772977 18.63953224 11.35305242 20.2421875 12.52734375 C21.04108398 13.11370605 21.83998047 13.70006836 22.66308594 14.30419922 C26.08607629 16.78812013 29.56725677 19.18180246 33.0625 21.5625 C40.72325361 26.79221833 48.30352876 32.13062074 55.87207031 37.49267578 C59.35014546 39.95637885 62.83097125 42.4161805 66.3125 44.875 C67.00375977 45.36331299 67.69501953 45.85162598 68.40722656 46.35473633 C74.83662534 50.89257241 81.28735887 55.39971712 87.73803711 59.90722656 C93.8747415 64.20010326 99.97670354 68.53851139 106.0546875 72.9140625 C108.10202874 74.36403627 110.19388642 75.75233126 112.31640625 77.08984375 C115 79 115 79 116.0625 81.9375 C115.98736079 85.61932151 115.09847656 87.01259958 113 90 C111.02075195 91.69067383 111.02075195 91.69067383 108.73828125 93.20703125 C107.8781543 93.78582031 107.01802734 94.36460937 106.13183594 94.9609375 C105.20145508 95.57195312 104.27107422 96.18296875 103.3125 96.8125 C102.34731445 97.45832031 101.38212891 98.10414063 100.38769531 98.76953125 C97.26484461 100.85611315 94.1327016 102.92824383 91 105 C87.78664044 107.13948118 84.57523181 109.28186696 81.36401367 111.42456055 C79.3437465 112.77103575 77.32186709 114.11509627 75.2980957 115.45629883 C69.97972979 118.98468524 64.71520635 122.57531114 59.49658203 126.24951172 C55.12982546 129.31128021 50.72030973 132.31027181 46.3125 135.3125 C45.35134277 135.96766602 44.39018555 136.62283203 43.39990234 137.29785156 C37.41222686 141.3737571 31.40807112 145.42271016 25.36303711 149.41308594 C22.10817619 151.56819084 18.89234747 153.7681901 15.703125 156.01953125 C14.98108887 156.52645508 14.25905273 157.03337891 13.51513672 157.55566406 C12.12628184 158.53353451 10.74216865 159.51818774 9.36376953 160.51074219 C2.83450038 165.09815274 2.83450038 165.09815274 -1 165 C-3.27734375 163.65234375 -3.27734375 163.65234375 -5 161 C-5.60705827 157.8419328 -5.60384351 154.77027019 -5.5625 151.5625 C-5.58634766 150.71623047 -5.61019531 149.86996094 -5.63476562 148.99804688 C-5.62456149 144.65448644 -5.49189198 142.6304772 -2.75390625 139.12109375 C-1.84511719 138.42113281 -0.93632813 137.72117187 0 137 C0.73476563 136.4121875 1.46953125 135.824375 2.2265625 135.21875 C9.08985018 130.30043309 16.04801892 125.53047737 23.02783203 120.77929688 C27.23218229 117.91273217 31.40408201 115.02073952 35.5 112 C40.32072586 108.44985305 45.24338884 105.06230822 50.1875 101.6875 C50.99687012 101.13473389 51.80624023 100.58196777 52.64013672 100.01245117 C56.67003987 97.26326133 60.70532377 94.52225179 64.74609375 91.7890625 C66.20575497 90.79691296 67.66539159 89.80472724 69.125 88.8125 C69.8058667 88.35512451 70.4867334 87.89774902 71.18823242 87.42651367 C74.63623041 85.225035 74.63623041 85.225035 77 82 C76.34 82 75.68 82 75 82 C75 81.34 75 80.68 75 80 C74.3090625 79.76410156 73.618125 79.52820313 72.90625 79.28515625 C69.43420842 77.74980453 66.53521611 75.68047758 63.5 73.4375 C62.24405318 72.52526522 60.98753079 71.61382239 59.73046875 70.703125 C59.10188965 70.24615234 58.47331055 69.78917969 57.82568359 69.31835938 C51.42346526 64.69520091 44.87333085 60.27462477 38.34765625 55.828125 C30.76933057 50.66224298 23.21045682 45.49825197 15.8359375 40.04296875 C13.52938463 38.38136111 11.2049966 36.76924124 8.8515625 35.17578125 C7.75847778 34.43448975 7.75847778 34.43448975 6.64331055 33.67822266 C5.20017119 32.7029256 3.75382979 31.73234572 2.30395508 30.76708984 C1.31625122 30.0992749 1.31625122 30.0992749 0.30859375 29.41796875 C-0.57614624 28.82665161 -0.57614624 28.82665161 -1.47875977 28.22338867 C-3.70302788 26.43462162 -4.89517306 24.72293003 -5.30639648 21.88696289 C-5.37630299 19.27826299 -5.42087822 16.67211922 -5.4375 14.0625 C-5.47037109 13.15564453 -5.50324219 12.24878906 -5.53710938 11.31445312 C-5.59133521 4.61509829 -5.59133521 4.61509829 -2.47265625 1.37109375 C-1.65667969 0.91863281 -0.84070313 0.46617187 0 0 Z " fill="#D6D8DE" transform="translate(734,412)"/>
<path d="M0 0 C3.5637162 6.38499153 3.87584921 12.78712419 3 20 C1.08578595 26.30524271 -1.59370159 28.73060716 -6.9375 32.0625 C-8.38765263 33.0128995 -9.83682612 33.96479422 -11.28515625 34.91796875 C-12.43588623 35.66506104 -12.43588623 35.66506104 -13.60986328 36.42724609 C-17.75819604 39.15692532 -21.81286843 42.01929392 -25.875 44.875 C-26.71853027 45.46539062 -27.56206055 46.05578125 -28.43115234 46.6640625 C-34.75209505 51.09608496 -41.00962079 55.611045 -47.25 60.15551758 C-53.67161496 64.811331 -60.21271158 69.2830483 -66.80883789 73.68774414 C-70.54790643 76.20811767 -73.96698138 78.61826533 -77 82 C-73.37377838 85.85200523 -69.53149937 88.87913625 -65.125 91.8125 C-63.69475414 92.78042546 -62.26510253 93.74922939 -60.8359375 94.71875 C-60.06217773 95.24210937 -59.28841797 95.76546875 -58.49121094 96.3046875 C-53.88622899 99.43845805 -49.32000495 102.62803902 -44.75 105.8125 C-43.28663208 106.83138306 -43.28663208 106.83138306 -41.79370117 107.87084961 C-25.49007527 119.22600049 -25.49007527 119.22600049 -17.56640625 124.80078125 C-14.63190829 126.86438 -11.68253021 128.90242942 -8.71484375 130.91796875 C-7.43488766 131.7994673 -6.15493921 132.68097695 -4.875 133.5625 C-4.30064209 133.94390137 -3.72628418 134.32530273 -3.13452148 134.71826172 C0.30611656 137.10985342 2.01356241 138.90568976 3 143 C3.265625 146.59375 3.265625 146.59375 3.25 150.5 C3.25773437 152.43359375 3.25773437 152.43359375 3.265625 154.40625 C3.01297324 157.82447972 2.80293498 160.0892375 1 163 C-1.16015625 164.08203125 -1.16015625 164.08203125 -4 164 C-6.67408186 162.67042857 -8.97518521 161.33638213 -11.4375 159.6875 C-12.13907227 159.2332666 -12.84064453 158.7790332 -13.56347656 158.31103516 C-19.39337984 154.50018581 -25.0604799 150.46654987 -30.6953125 146.375 C-35.69061462 142.75901948 -40.84979733 139.38974466 -46 136 C-53.34319986 131.14141708 -60.6258992 126.20380986 -67.87280273 121.20336914 C-72.3260622 118.13605965 -76.80614386 115.1136557 -81.3125 112.125 C-87.1894979 108.22094352 -93.04185046 104.28179957 -98.875 100.3125 C-99.64755127 99.78994629 -100.42010254 99.26739258 -101.21606445 98.72900391 C-105.20457539 96.00725054 -109.13681636 93.21622252 -113.00390625 90.32421875 C-113.74455322 89.77209717 -114.4852002 89.21997559 -115.24829102 88.65112305 C-117 87 -117 87 -118.0625 83.5 C-115.41960931 74.79400714 -104.63008439 69.90777407 -97.4140625 65.0234375 C-92.87662958 61.93846862 -88.43513547 58.72963451 -84 55.5 C-78.38640875 51.41836895 -72.73587027 47.40796342 -67 43.5 C-58.92506778 37.9954636 -51.01799089 32.26948311 -43.11035156 26.52832031 C-40.00009105 24.27586418 -36.87667039 22.04209845 -33.75 19.8125 C-32.91432495 19.21646973 -32.91432495 19.21646973 -32.06176758 18.60839844 C-30.94670893 17.81334423 -29.83155619 17.01842195 -28.71630859 16.22363281 C-25.66346573 14.04712521 -22.61315933 11.86706647 -19.5625 9.6875 C-18.45964623 8.89972445 -17.35678202 8.1119635 -16.25390625 7.32421875 C-14.54248547 6.10177533 -12.83391338 4.87458317 -11.15551758 3.60717773 C-7.20309532 0.65889283 -4.99569911 -0.6092316 0 0 Z " fill="#D6D7DE" transform="translate(291,413)"/>
<path d="M0 0 C1.25933177 0.00539716 1.25933177 0.00539716 2.54410458 0.01090336 C3.43632182 0.01078282 4.32853907 0.01066229 5.2477932 0.0105381 C8.14989263 0.0112874 11.05192867 0.01891638 13.95401669 0.0267725 C15.74010849 0.02824187 17.52620073 0.02926261 19.31229305 0.02982426 C25.95198873 0.03507774 32.5916752 0.04903881 39.23136044 0.06192875 C54.06073544 0.08255375 68.89011044 0.10317875 84.16886044 0.12442875 C84.16886044 31.14442875 84.16886044 62.16442875 84.16886044 94.12442875 C80.86886044 95.77442875 77.56886044 97.42442875 74.16886044 99.12442875 C72.68386044 98.62942875 72.68386044 98.62942875 71.16886044 98.12442875 C72.79135984 97.28623717 74.4169454 96.45401715 76.04386044 95.62442875 C77.40124325 94.928335 77.40124325 94.928335 78.78604794 94.21817875 C81.16886044 93.12442875 81.16886044 93.12442875 83.16886044 93.12442875 C83.16886044 63.09442875 83.16886044 33.06442875 83.16886044 2.12442875 C54.12886044 2.12442875 25.08886044 2.12442875 -4.83113956 2.12442875 C-4.83113956 12.68442875 -4.83113956 23.24442875 -4.83113956 34.12442875 C10.34886044 34.12442875 25.52886044 34.12442875 41.16886044 34.12442875 C41.21011044 39.01255375 41.25136044 43.90067875 41.29386044 48.93692875 C41.31206844 50.47582767 41.33027645 52.0147266 41.34903622 53.60025883 C41.35403133 54.81093021 41.35902645 56.0216016 41.36417294 57.26896 C41.37988338 59.13064823 41.37988338 59.13064823 41.39591122 61.02994633 C41.16886044 64.12442875 41.16886044 64.12442875 39.16886044 67.12442875 C38.17886044 66.62942875 38.17886044 66.62942875 37.16886044 66.12442875 C37.82886044 63.81442875 38.48886044 61.50442875 39.16886044 59.12442875 C39.16886044 51.53442875 39.16886044 43.94442875 39.16886044 36.12442875 C23.98886044 35.79442875 8.80886044 35.46442875 -6.83113956 35.12442875 C-6.85176456 29.53505375 -6.87238956 23.94567875 -6.89363956 18.18692875 C-6.90274357 16.42099369 -6.91184757 14.65505863 -6.92122746 12.83561039 C-6.9241467 11.4436027 -6.92669524 10.05159416 -6.92879581 8.659585 C-6.93646976 7.56607731 -6.93646976 7.56607731 -6.94429874 6.45047855 C-6.94460968 4.67472799 -6.89342471 2.89908667 -6.83113956 1.12442875 C-4.99819238 -0.70851844 -2.43864831 0.00443717 0 0 Z " fill="#3B0F8A" transform="translate(606.8311395645142,479.8755712509155)"/>
<path d="M0 0 C0.66 0 1.32 0 2 0 C2 0.66 2 1.32 2 2 C3.75032844 1.85816304 5.50025534 1.71136571 7.25 1.5625 C8.22453125 1.48128906 9.1990625 1.40007812 10.203125 1.31640625 C12.92074826 1.08226251 12.92074826 1.08226251 15.171875 0.40234375 C17 0 17 0 20 1 C20.99 0.67 21.98 0.34 23 0 C23.495 0.495 23.495 0.495 24 1 C26.05396726 0.59070014 26.05396726 0.59070014 28 0 C28 0.33 28 0.66 28 1 C32.80517404 1.0942191 37.29869807 1.13970956 42 0 C42.66 0 43.32 0 44 0 C44.495 0.495 44.495 0.495 45 1 C45 0.67 45 0.34 45 0 C47.64 0 50.28 0 53 0 C53 0.66 53 1.32 53 2 C53.94875 1.814375 54.8975 1.62875 55.875 1.4375 C59 1 59 1 61 2 C61 1.34 61 0.68 61 0 C62.11375 0.165 63.2275 0.33 64.375 0.5 C69.39615073 1.06417424 74.39094282 1.11300105 79.4375 1.125 C80.24300293 1.12951172 81.04850586 1.13402344 81.87841797 1.13867188 C86.07258785 1.23801128 86.07258785 1.23801128 90 0 C90 0.66 90 1.32 90 2 C90.56509277 1.9592334 91.13018555 1.9184668 91.71240234 1.87646484 C94.26597672 1.69838179 96.8203257 1.5365024 99.375 1.375 C100.70917969 1.27832031 100.70917969 1.27832031 102.0703125 1.1796875 C102.92109375 1.128125 103.771875 1.0765625 104.6484375 1.0234375 C105.82672119 0.94488525 105.82672119 0.94488525 107.02880859 0.86474609 C109 1 109 1 111 3 C111.17532289 5.86888581 111.23137614 8.63992645 111.1953125 11.5078125 C111.1924826 12.34843231 111.18965271 13.18905212 111.18673706 14.05514526 C111.1755243 16.74524046 111.15041803 19.4350051 111.125 22.125 C111.1149716 23.94660978 111.10584551 25.76822477 111.09765625 27.58984375 C111.07558142 32.06002358 111.04104434 36.52995571 111 41 C87.09089181 41.83792057 63.2158796 42.13481034 39.29315186 42.06866455 C35.0606744 42.05814662 30.82819007 42.05380823 26.59570312 42.04882812 C18.39711787 42.03833148 10.19856395 42.02143485 2 42 C5.11697949 39.92201367 5.77668235 39.75096908 9.30900574 39.75949097 C10.18820175 39.75674164 11.06739777 39.75399231 11.97323608 39.75115967 C13.41577255 39.7619455 13.41577255 39.7619455 14.88745117 39.77294922 C15.90226059 39.77265717 16.91707001 39.77236511 17.96263123 39.77206421 C21.32283018 39.77345951 24.68280844 39.78903028 28.04296875 39.8046875 C30.37038553 39.80841691 32.69780387 39.81126422 35.02522278 39.81326294 C41.15567345 39.82090502 47.28602959 39.8405585 53.41644287 39.8626709 C59.6701937 39.88311692 65.92395977 39.892262 72.17773438 39.90234375 C84.45187116 39.92380381 96.72591294 39.95899069 109 40 C109 27.79 109 15.58 109 3 C69.4 3 29.8 3 -11 3 C-11 2.67 -11 2.34 -11 2 C-5.555 1.505 -5.555 1.505 0 1 C0 0.67 0 0.34 0 0 Z " fill="#351386" transform="translate(579,400)"/>
<path d="M0 0 C34.65 0 69.3 0 105 0 C101.18106107 2.54595929 98.1357977 2.2359456 93.71875 2.16015625 C92.5039093 2.1523539 92.5039093 2.1523539 91.26452637 2.14439392 C88.67616864 2.1265794 86.0882064 2.09541111 83.5 2.0625 C80.91183204 2.0348743 78.32372082 2.01016012 75.73547363 1.99131775 C74.12498919 1.9790719 72.5145347 1.96147917 70.9041748 1.93800354 C67.65941796 1.90900854 65.1025948 1.96580173 62 3 C60.66013839 2.69396118 59.3270846 2.35740083 58 2 C56.40798926 1.92036896 54.81296336 1.89227158 53.21899414 1.90234375 C52.27443863 1.90564697 51.32988312 1.9089502 50.35670471 1.91235352 C49.34309372 1.92065186 48.32948273 1.9289502 47.28515625 1.9375 C46.23726425 1.94128662 45.18937225 1.94507324 44.10972595 1.94897461 C39.62819666 1.9653215 35.14675859 1.99345471 30.6652832 2.02050781 C27.39274517 2.03858682 24.12022193 2.05068517 20.84765625 2.0625 C19.83606949 2.07079834 18.82448273 2.07909668 17.78224182 2.08764648 C16.83453415 2.09094971 15.88682648 2.09425293 14.91040039 2.09765625 C13.66607994 2.10551147 13.66607994 2.10551147 12.3966217 2.11352539 C9.84712719 1.99275858 7.48697647 1.56007886 5 1 C4.87625 1.639375 4.7525 2.27875 4.625 2.9375 C4.41875 3.618125 4.2125 4.29875 4 5 C3.01 5.495 3.01 5.495 2 6 C2.01160156 7.24394531 2.02320313 8.48789062 2.03515625 9.76953125 C2.09171099 18.56644429 2.10059965 27.25416349 1 36 C2.58941406 35.85691406 2.58941406 35.85691406 4.2109375 35.7109375 C5.59891309 35.59839894 6.98693661 35.48645035 8.375 35.375 C9.42300781 35.27832031 9.42300781 35.27832031 10.4921875 35.1796875 C12.32369111 35.03880261 14.16312748 35.01238341 16 35 C16.66 35.66 17.32 36.32 18 37 C12.06 37 6.12 37 0 37 C0 24.79 0 12.58 0 0 Z " fill="#1CE3FC" transform="translate(330,403)"/>
<path d="M0 0 C5.87657 0.48168607 11.19343378 1.47292992 16.8359375 3.18359375 C27.49446585 5.93375724 37.77589379 6.29643255 48.71484375 6.265625 C50.41915441 6.26697575 52.12346469 6.26891968 53.82777405 6.27142334 C57.38383689 6.27435612 60.93979861 6.27013736 64.49584961 6.26074219 C69.02216378 6.24935754 73.54824041 6.25591269 78.07454586 6.26788712 C81.58958174 6.27516333 85.10456263 6.27279139 88.6196003 6.26763153 C90.28712557 6.26631046 91.95465606 6.26788775 93.62217522 6.27259064 C102.95429234 6.2931393 111.82498255 5.96661083 121 4 C121 3.34 121 2.68 121 2 C125.17737474 0.40861915 128.53160785 -0.21278058 133 0 C122.29534049 9.70747026 102.76396115 8.72407712 89.31640625 8.59375 C87.39932837 8.5920322 85.48224813 8.59211134 83.56517029 8.59387207 C79.58593673 8.59223534 75.60727784 8.57383461 71.62817383 8.54199219 C66.55940133 8.50212969 61.49137082 8.49797966 56.42247105 8.50545502 C52.47848355 8.50853964 48.53465915 8.4963544 44.59071159 8.47932434 C42.72223877 8.47235951 40.85374752 8.46916177 38.98526192 8.47001648 C24.8546426 8.46017962 13.07545036 6.69881354 0 1 C0 0.67 0 0.34 0 0 Z " fill="#3D0E93" transform="translate(545,579)"/>
<path d="M0 0 C3.3739871 2.55657785 6.05441276 5.07988274 8.625 8.4375 C11.39860287 11.99905823 14.23774832 15.47201067 17.18383789 18.89013672 C21.88772439 24.34865315 26.22636607 29.83799016 30 36 C20.85132401 37.58452277 11.60399127 37.22436332 2.34863281 37.14257812 C0.11623313 37.13085949 -2.11633232 37.13704558 -4.34863281 37.16113281 C-7.58826522 37.19453108 -10.82299584 37.16971069 -14.0625 37.1328125 C-15.05435303 37.15425323 -16.04620605 37.17569397 -17.06811523 37.19778442 C-21.4092575 37.09332068 -23.97507518 36.95393618 -27.23388672 33.9208374 C-28.98598961 31.68172845 -30.54800303 29.44241996 -32 27 C-31.01 26.67 -30.02 26.34 -29 26 C-28.8453125 26.9590625 -28.8453125 26.9590625 -28.6875 27.9375 C-28.460625 28.618125 -28.23375 29.29875 -28 30 C-27.01 30.33 -26.02 30.66 -25 31 C-25 31.66 -25 32.32 -25 33 C-22.69380902 34.15309549 -21.34782179 34.13832146 -18.78149414 34.16113281 C-17.91041519 34.17074036 -17.03933624 34.1803479 -16.14186096 34.19024658 C-15.19914841 34.19449646 -14.25643585 34.19874634 -13.28515625 34.203125 C-12.31847519 34.20882507 -11.35179413 34.21452515 -10.3558197 34.22039795 C-8.30892026 34.22985336 -6.26200555 34.23638407 -4.21508789 34.24023438 C-1.07867012 34.24994991 2.05709522 34.28097233 5.19335938 34.3125 C7.1796836 34.31902892 9.16601252 34.32427983 11.15234375 34.328125 C12.09303207 34.3404718 13.0337204 34.3528186 14.00291443 34.36553955 C14.87714554 34.36253845 15.75137665 34.35953735 16.65209961 34.35644531 C17.80554115 34.36191376 17.80554115 34.36191376 18.98228455 34.36749268 C21.50124381 33.90870694 22.3904647 32.93644123 24 31 C23.34 31 22.68 31 22 31 C22 30.34 22 29.68 22 29 C21.34 29 20.68 29 20 29 C19.04867147 27.60698322 18.10588254 26.20723714 17.2109375 24.77734375 C15.90309179 22.85776376 14.44044113 21.21434895 12.875 19.5 C10.25814694 16.53291156 8.94935542 13.89235721 8 10 C7.01 10 6.02 10 5 10 C3.61328125 8.3203125 3.61328125 8.3203125 2.3125 6.125 C1.87550781 5.40570312 1.43851562 4.68640625 0.98828125 3.9453125 C0 2 0 2 0 0 Z " fill="#4422A3" transform="translate(481,551)"/>
<path d="M0 0 C2.14915785 3.22373677 2.38286803 4.26703674 2 8 C1.34 8.66 0.68 9.32 0 10 C-2.46350336 18.08934945 -2.25744787 26.16407721 -2.1953125 34.53515625 C-2.19157537 36.02444772 -2.18873171 37.51374168 -2.18673706 39.0030365 C-2.17915567 42.89430713 -2.15955544 46.78542489 -2.1373291 50.67663574 C-2.11675127 54.65875176 -2.10770999 58.64089284 -2.09765625 62.62304688 C-2.07630349 70.41543375 -2.04223523 78.20769533 -2 86 C-1.34 86.33 -0.68 86.66 0 87 C-0.33 88.98 -0.66 90.96 -1 93 C-3.43387661 89.15098979 -3.67403192 84.97942533 -4.10546875 80.5546875 C-4.18935349 79.71880096 -4.27323822 78.88291443 -4.35966492 78.021698 C-5.25108857 68.3949485 -5.3495824 58.78628054 -5.3125 49.125 C-5.31167419 48.20955414 -5.31084839 47.29410828 -5.30999756 46.35092163 C-5.27718391 30.53077223 -4.59513629 15.24386516 0 0 Z " fill="#201871" transform="translate(514,445)"/>
<path d="M0 0 C30.69 0 61.38 0 93 0 C88.6489108 2.1755446 85.58756049 2.25252413 80.88256836 2.17944336 C80.0675032 2.17491653 79.25243805 2.17038971 78.41267395 2.16572571 C76.64585613 2.15478007 74.87906194 2.13928418 73.11231804 2.11976433 C70.31773635 2.08960517 67.5233635 2.07279536 64.72865295 2.05970764 C56.78403016 2.01994393 48.83966009 1.95474826 40.89526367 1.88354492 C36.03425133 1.84089762 31.1733235 1.81276139 26.31216621 1.79324532 C24.45853038 1.7826609 22.60491851 1.76624411 20.75138664 1.74394035 C18.16348949 1.71284141 15.57609202 1.69999091 12.98803711 1.69116211 C11.83544907 1.67027023 11.83544907 1.67027023 10.65957642 1.6489563 C6.61780923 1.64467895 6.61780923 1.64467895 3.027771 3.3086853 C1.29662616 6.15748208 1.51758958 9.27193609 1.48828125 12.51171875 C1.47033005 13.23994339 1.45237885 13.96816803 1.43388367 14.71846008 C1.37975787 17.04141471 1.3458792 19.36416366 1.3125 21.6875 C1.27932875 23.26370051 1.24483927 24.83987388 1.20898438 26.41601562 C1.1240307 30.27719536 1.05723124 34.13831387 1 38 C0.67 38 0.34 38 0 38 C0 25.46 0 12.92 0 0 Z " fill="#34BAFC" transform="translate(330,483)"/>
<path d="M0 0 C0.66 0 1.32 0 2 0 C2 0.66 2 1.32 2 2 C3.75032844 1.85816304 5.50025534 1.71136571 7.25 1.5625 C8.22453125 1.48128906 9.1990625 1.40007812 10.203125 1.31640625 C12.92074826 1.08226251 12.92074826 1.08226251 15.171875 0.40234375 C17 0 17 0 20 1 C20.99 0.67 21.98 0.34 23 0 C23.495 0.495 23.495 0.495 24 1 C26.05396726 0.59070014 26.05396726 0.59070014 28 0 C28 0.33 28 0.66 28 1 C32.80517404 1.0942191 37.29869807 1.13970956 42 0 C42.66 0 43.32 0 44 0 C44.495 0.495 44.495 0.495 45 1 C45 0.67 45 0.34 45 0 C47.64 0 50.28 0 53 0 C53 0.66 53 1.32 53 2 C53.94875 1.814375 54.8975 1.62875 55.875 1.4375 C59 1 59 1 61 2 C61 1.34 61 0.68 61 0 C63.97 0.33 66.94 0.66 70 1 C70 1.66 70 2.32 70 3 C43.27 3 16.54 3 -11 3 C-11 2.67 -11 2.34 -11 2 C-5.555 1.505 -5.555 1.505 0 1 C0 0.67 0 0.34 0 0 Z " fill="#211B6D" transform="translate(579,400)"/>
<path d="M0 0 C-1.6232687 0.6708712 -3.24867578 1.33657029 -4.875 2 C-6.23238281 2.556875 -6.23238281 2.556875 -7.6171875 3.125 C-10 4 -10 4 -12 4 C-12.2475 4.61875 -12.495 5.2375 -12.75 5.875 C-14.26851485 8.45647524 -15.35170903 8.68278721 -18 10 C-19.71512792 11.27618523 -21.4012336 12.59194939 -23.0625 13.9375 C-23.91972656 14.62714844 -24.77695312 15.31679688 -25.66015625 16.02734375 C-27.95656892 17.89320186 -27.95656892 17.89320186 -29.68359375 19.75390625 C-31 21 -31 21 -33 21 C-33.226875 21.94875 -33.45375 22.8975 -33.6875 23.875 C-35 27 -35 27 -37.625 28.375 C-38.800625 28.684375 -38.800625 28.684375 -40 29 C-35.90865268 16.85584208 -22.88767373 7.79312843 -12 2 C-7.80182194 0.01252634 -4.58492099 -1.46434701 0 0 Z " fill="#3F64CF" transform="translate(560,406)"/>
<path d="M0 0 C0.66 0.33 1.32 0.66 2 1 C3.54227856 1.08991092 5.08840895 1.11756961 6.63330078 1.11352539 C7.59414581 1.11344986 8.55499084 1.11337433 9.54495239 1.11329651 C11.10438065 1.10555458 11.10438065 1.10555458 12.6953125 1.09765625 C13.75789276 1.0962413 14.82047302 1.09482635 15.91525269 1.09336853 C19.31853009 1.08775834 22.72174238 1.07520409 26.125 1.0625 C28.42838447 1.05748631 30.73176997 1.05292318 33.03515625 1.04882812 C38.69012649 1.0377856 44.34505859 1.02103752 50 1 C46.35996076 3.42669283 43.7027485 3.26911387 39.49926758 3.22705078 C38.73805099 3.22734283 37.97683441 3.22763489 37.19255066 3.22793579 C34.67642824 3.22654243 32.16060194 3.21098107 29.64453125 3.1953125 C27.90004132 3.19158239 26.15554929 3.18873541 24.41105652 3.18673706 C19.81936866 3.17910045 15.22780731 3.15945171 10.63616943 3.1373291 C5.95082307 3.11687129 1.26545627 3.10773548 -3.41992188 3.09765625 C-12.61333683 3.07620585 -21.8066579 3.04206955 -31 3 C-27.51212372 0.67474915 -26.1981012 0.77463331 -22.08984375 0.83984375 C-20.93548828 0.85080078 -19.78113281 0.86175781 -18.59179688 0.87304688 C-17.38587891 0.89431641 -16.17996094 0.91558594 -14.9375 0.9375 C-12.55084028 0.97183128 -10.16411578 1.00199514 -7.77734375 1.02734375 C-6.18780884 1.05429321 -6.18780884 1.05429321 -4.56616211 1.08178711 C-2.01024624 1.17949582 -2.01024624 1.17949582 0 0 Z " fill="#9627F9" transform="translate(607,583)"/>
<path d="M0 0 C0.33 0.66 0.66 1.32 1 2 C1.84763916 1.9388501 1.84763916 1.9388501 2.71240234 1.87646484 C5.26597672 1.69838179 7.8203257 1.5365024 10.375 1.375 C11.70917969 1.27832031 11.70917969 1.27832031 13.0703125 1.1796875 C13.92109375 1.128125 14.771875 1.0765625 15.6484375 1.0234375 C16.82672119 0.94488525 16.82672119 0.94488525 18.02880859 0.86474609 C20 1 20 1 22 3 C22.10457575 5.80164856 22.08917671 8.49434913 21.9765625 11.2890625 C21.93902359 12.51669815 21.93902359 12.51669815 21.90072632 13.76913452 C21.8184256 16.38817148 21.72187618 19.00646554 21.625 21.625 C21.56677066 23.39840696 21.50946717 25.17184458 21.453125 26.9453125 C21.31283201 31.29730379 21.15975672 35.64868148 21 40 C20.67 40 20.34 40 20 40 C20 27.79 20 15.58 20 3 C7.13 3 -5.74 3 -19 3 C-19 2.67 -19 2.34 -19 2 C-16.93769732 1.8309093 -14.8751477 1.66482867 -12.8125 1.5 C-11.08966797 1.36078125 -11.08966797 1.36078125 -9.33203125 1.21875 C-6 1 -6 1 -3.13671875 1.03125 C-1.01616459 1.24839482 -1.01616459 1.24839482 0 0 Z " fill="#461A9F" transform="translate(668,400)"/>
<path d="M0 0 C1.32 0.33 2.64 0.66 4 1 C4 1.99 4 2.98 4 4 C4.99 4.33 5.98 4.66 7 5 C7 5.66 7 6.32 7 7 C9.50549445 8.25274723 11.19735632 8.12029624 14.00048828 8.11352539 C15.04141632 8.11344986 16.08234436 8.11337433 17.15481567 8.11329651 C18.8454866 8.10555458 18.8454866 8.10555458 20.5703125 8.09765625 C22.29735916 8.09553383 22.29735916 8.09553383 24.05929565 8.09336853 C27.74788986 8.08775716 31.43642405 8.0752027 35.125 8.0625 C37.62109288 8.05748647 40.1171867 8.05292331 42.61328125 8.04882812 C48.74220809 8.03778403 54.87109976 8.0210348 61 8 C61.495 8.99 61.495 8.99 62 10 C52.85132401 11.58452277 43.60399127 11.22436332 34.34863281 11.14257812 C32.11623313 11.13085949 29.88366768 11.13704558 27.65136719 11.16113281 C24.41173478 11.19453108 21.17700416 11.16971069 17.9375 11.1328125 C16.94564697 11.15425323 15.95379395 11.17569397 14.93188477 11.19778442 C10.61387882 11.09387742 8.03037772 10.94279562 4.76611328 7.95599365 C0 1.9319571 0 1.9319571 0 0 Z " fill="#2E168D" transform="translate(449,577)"/>
<path d="M0 0 C0 0.99 0 1.98 0 3 C-2.1200118 4.5832236 -4.17967441 5.95383143 -6.4375 7.3125 C-7.720437 8.10875516 -9.00298856 8.90563166 -10.28515625 9.703125 C-11.23285889 10.28610352 -11.23285889 10.28610352 -12.19970703 10.88085938 C-14.62673017 12.3896028 -17.00321085 13.96865769 -19.375 15.5625 C-20.08398438 16.03816406 -20.79296875 16.51382813 -21.5234375 17.00390625 C-22.01070312 17.33261719 -22.49796875 17.66132812 -23 18 C-23.33 17.01 -23.66 16.02 -24 15 C-20.38013325 12.49250203 -16.75328923 9.99529185 -13.125 7.5 C-12.09246094 6.78457031 -11.05992187 6.06914063 -9.99609375 5.33203125 C-9.00996094 4.65527344 -8.02382813 3.97851562 -7.0078125 3.28125 C-6.09660645 2.65283203 -5.18540039 2.02441406 -4.24658203 1.37695312 C-2 0 -2 0 0 0 Z " fill="#ACACB2" transform="translate(768,553)"/>
<path d="M0 0 C5.98426848 0.49051381 11.37394479 1.57156611 17.13671875 3.234375 C21.70291063 4.45534855 26.33915248 5.23370979 31 6 C20.6880354 9.35138849 9.20359223 5.64464338 0 1 C0 0.67 0 0.34 0 0 Z " fill="#681FC5" transform="translate(545,579)"/>
<path d="M0 0 C2.14915785 3.22373677 2.38286803 4.26703674 2 8 C1.34 8.66 0.68 9.32 0 10 C-2.39856255 18.18333105 -2.60516668 26.53186433 -3 35 C-3.66 34.67 -4.32 34.34 -5 34 C-4.56050014 22.4669176 -3.67673098 11.03019295 0 0 Z " fill="#1B2781" transform="translate(514,445)"/>
<path d="M0 0 C-1.6232687 0.6708712 -3.24867578 1.33657029 -4.875 2 C-6.23238281 2.556875 -6.23238281 2.556875 -7.6171875 3.125 C-10 4 -10 4 -12 4 C-12.2475 4.61875 -12.495 5.2375 -12.75 5.875 C-14.24624309 8.41861325 -15.31072677 8.8926522 -18 10 C-18.7425 10.37125 -19.485 10.7425 -20.25 11.125 C-20.8275 11.41375 -21.405 11.7025 -22 12 C-22.33 11.01 -22.66 10.02 -23 9 C-6.51380257 -2.06151114 -6.51380257 -2.06151114 0 0 Z " fill="#354FAE" transform="translate(560,406)"/>
<path d="M0 0 C2.3125 0.0625 2.3125 0.0625 5 1 C6.06902939 3.30252483 7.07175817 5.6372026 8 8 C8.99 8.33 9.98 8.66 11 9 C11.94921875 11.06640625 11.94921875 11.06640625 12.6875 13.5625 C12.93886719 14.38878906 13.19023437 15.21507812 13.44921875 16.06640625 C13.63097656 16.70449219 13.81273437 17.34257813 14 18 C10.33161087 14.48147401 7.22834183 10.84479861 4.1875 6.75 C3.39730469 5.69296875 2.60710937 4.6359375 1.79296875 3.546875 C0 1 0 1 0 0 Z " fill="#314FBC" transform="translate(411,527)"/>
<path d="M0 0 C0.99 0.33 1.98 0.66 3 1 C2.69707031 1.51046875 2.39414062 2.0209375 2.08203125 2.546875 C-1.52875786 8.81298288 -4.32999819 15.28522949 -7 22 C-7.33 22 -7.66 22 -8 22 C-7.57815943 15.35601103 -6.42584281 9.7916135 -3 4 C-2.34 3.67 -1.68 3.34 -1 3 C-0.67 2.01 -0.34 1.02 0 0 Z " fill="#674AF1" transform="translate(561,450)"/>
<path d="M0 0 C0.33 0 0.66 0 1 0 C1.33 6.6 1.66 13.2 2 20 C3.65 20.33 5.3 20.66 7 21 C7 20.34 7 19.68 7 19 C8.65 19 10.3 19 12 19 C10.30143878 21.05615305 9.076023 21.97076039 6.5625 22.9375 C4 23 4 23 1.85546875 21.61328125 C-0.95710886 17.65198774 -0.43157165 13.9778464 -0.25 9.25 C-0.23195313 8.36183594 -0.21390625 7.47367188 -0.1953125 6.55859375 C-0.14827374 4.37129152 -0.08257009 2.18620184 0 0 Z " fill="#6C6B73" transform="translate(729,554)"/>
<path d="M0 0 C3.39891587 5.56555547 2.91622918 13.19074579 1.4296875 19.37109375 C0.6875 21.25 0.6875 21.25 -1 24 C-1.99 24.33 -2.98 24.66 -4 25 C-3.38722388 22.03824877 -2.74627478 20.61941217 -1 18 C-0.63648496 15.97457852 -0.63648496 15.97457852 -0.5859375 13.76953125 C-0.54726563 12.96708984 -0.50859375 12.16464844 -0.46875 11.33789062 C-0.4378125 10.50451172 -0.406875 9.67113281 -0.375 8.8125 C-0.33632813 7.96751953 -0.29765625 7.12253906 -0.2578125 6.25195312 C-0.16363721 4.16832476 -0.08073325 2.08419247 0 0 Z " fill="#83868D" transform="translate(292,416)"/>
<path d="M0 0 C-2.87209787 2.36798831 -5.36911918 3.64832592 -8.9375 4.6875 C-9.77152344 4.93886719 -10.60554687 5.19023438 -11.46484375 5.44921875 C-14.05592311 6.0121497 -16.35727613 6.09927943 -19 6 C-16.35261084 4.5393715 -15.10551666 4 -12 4 C-12 3.34 -12 2.68 -12 2 C-7.82262526 0.40861915 -4.46839215 -0.21278058 0 0 Z " fill="#5719A4" transform="translate(678,579)"/>
<path d="M0 0 C1.32176485 0.90325616 2.63215066 1.82317903 3.9375 2.75 C4.66839844 3.26046875 5.39929688 3.7709375 6.15234375 4.296875 C8.20805399 6.19177915 8.62669176 7.27425729 9 10 C6.69 10 4.38 10 2 10 C2.99 8.68 3.98 7.36 5 6 C4.34 6 3.68 6 3 6 C3 5.34 3 4.68 3 4 C2.34 4 1.68 4 1 4 C0.67 2.68 0.34 1.36 0 0 Z " fill="#6B2DDB" transform="translate(500,576)"/>
<path d="M0 0 C1.98 0 3.96 0 6 0 C2.12582449 3.15639478 -2.06886159 4.87431069 -6.63671875 6.81640625 C-9.13621785 7.77287644 -9.13621785 7.77287644 -10 10 C-10.66 8.68 -11.32 7.36 -12 6 C-11.21753906 5.73445312 -10.43507813 5.46890625 -9.62890625 5.1953125 C-8.61699219 4.84210937 -7.60507812 4.48890625 -6.5625 4.125 C-5.55316406 3.77695312 -4.54382813 3.42890625 -3.50390625 3.0703125 C-0.86028249 2.25944907 -0.86028249 2.25944907 0 0 Z " fill="#213A94" transform="translate(463,509)"/>
<path d="M0 0 C2.475 0.495 2.475 0.495 5 1 C6.40454548 7.11980533 7.23268915 12.71739294 7 19 C6.34 19.33 5.68 19.66 5 20 C5.061875 18.865625 5.12375 17.73125 5.1875 16.5625 C5.19835031 10.46462633 3.36543413 5.0481512 0 0 Z " fill="#155891" transform="translate(440,447)"/>
<path d="M0 0 C4.97624046 1.17088011 8.23876935 2.34623308 12 6 C13.3125 8.25 13.3125 8.25 14 10 C10.67312232 8.45315734 7.75296022 6.54045021 4.75 4.4375 C3.85796875 3.81746094 2.9659375 3.19742187 2.046875 2.55859375 C1.37140625 2.04425781 0.6959375 1.52992188 0 1 C0 0.67 0 0.34 0 0 Z " fill="#9A9BA1" transform="translate(756,455)"/>
<path d="M0 0 C0.66 0.33 1.32 0.66 2 1 C-1.32673076 5.55885327 -4.25407302 8.3287734 -9.8125 9.6875 C-10.534375 9.790625 -11.25625 9.89375 -12 10 C-8.29909479 6.0747975 -4.45040344 3.05419844 0 0 Z " fill="#9A9CA2" transform="translate(247,440)"/>
<path d="M0 0 C5.56890517 0.47986031 10.67067568 1.29915181 16 3 C16 3.33 16 3.66 16 4 C11.14178248 4.1943287 7.5528117 3.65556789 3 2 C2.01 2 1.02 2 0 2 C0 1.34 0 0.68 0 0 Z " fill="#22D7F8" transform="translate(440,404)"/>
<path d="M0 0 C0.33 0.66 0.66 1.32 1 2 C2.32 2.33 3.64 2.66 5 3 C0.545 5.97 0.545 5.97 -4 9 C-4.33 8.01 -4.66 7.02 -5 6 C-4.360625 5.38125 -3.72125 4.7625 -3.0625 4.125 C-0.96116416 2.17402388 -0.96116416 2.17402388 0 0 Z " fill="#A4A6AB" transform="translate(823,512)"/>
<path d="M0 0 C2.14915785 3.22373677 2.38286803 4.26703674 2 8 C1.34 8.66 0.68 9.32 0 10 C-0.64767793 12.57061311 -0.64767793 12.57061311 -1 15 C-1.33 15 -1.66 15 -2 15 C-2.19392201 9.47322267 -1.7479503 5.24385089 0 0 Z " fill="#3552BA" transform="translate(514,445)"/>
<path d="M0 0 C0 0.99 0 1.98 0 3 C-2.97 4.65 -5.94 6.3 -9 8 C-8 4 -8 4 -5.0625 1.75 C-2 0 -2 0 0 0 Z " fill="#A5A5AC" transform="translate(753,563)"/>
<path d="M0 0 C-1.49835228 4.66154042 -4.88463591 5.86610751 -9 8 C-8.875 6.25 -8.875 6.25 -8 4 C-2.77777778 0 -2.77777778 0 0 0 Z " fill="#B0B2B8" transform="translate(257,461)"/>
<path d="M0 0 C0.6875 1.6875 0.6875 1.6875 1 4 C-0.1875 6.6875 -0.1875 6.6875 -2 9 C-4.1875 9.8125 -4.1875 9.8125 -6 10 C-4.6302836 6.00499382 -2.74277578 3.19990508 0 0 Z " fill="#3559BB" transform="translate(526,425)"/>
<path d="M0 0 C1.17949219 0.01804687 2.35898437 0.03609375 3.57421875 0.0546875 C4.92966797 0.08949219 4.92966797 0.08949219 6.3125 0.125 C5.3125 2.125 5.3125 2.125 3.625 2.8125 C0.68008776 3.21046111 -1.77250473 2.66040729 -4.6875 2.125 C-6.35377298 2.08877667 -8.02155374 2.07600158 -9.6875 2.125 C-6.05554504 -0.29630331 -4.30400652 -0.08522785 0 0 Z " fill="#444EC1" transform="translate(569.6875,402.875)"/>
<path d="M0 0 C4.83256305 0.41421969 6.82679218 2.46413986 10 6 C6.62972148 6 5.93297304 5.50175992 3.3125 3.5625 C2.68988281 3.11003906 2.06726563 2.65757812 1.42578125 2.19140625 C0.95527344 1.79824219 0.48476563 1.40507813 0 1 C0 0.67 0 0.34 0 0 Z " fill="#93949B" transform="translate(266,562)"/>
<path d="M0 0 C0.66 0.33 1.32 0.66 2 1 C0.4187874 3.5798732 -0.46648553 4.81748189 -3.375 5.8125 C-6.13278534 6.00948467 -8.33144102 5.68620088 -11 5 C-7.41161963 3.13404221 -3.77010767 1.46615298 0 0 Z " fill="#1C60A8" transform="translate(437,477)"/>
<path d="M0 0 C0.66 0.33 1.32 0.66 2 1 C0.35 2.98 -1.3 4.96 -3 7 C-4.32 6.34 -5.64 5.68 -7 5 C-4.69 3.35 -2.38 1.7 0 0 Z M-6 7 C-4 8 -4 8 -4 8 Z " fill="#A6A8AE" transform="translate(219,460)"/>
<path d="M0 0 C2.90802461 2.21928194 4.95312762 3.92969143 7 7 C7 7.99 7 8.98 7 10 C6.34 10 5.68 10 5 10 C3.7109375 8.3203125 3.7109375 8.3203125 2.375 6.125 C1.92898438 5.40570312 1.48296875 4.68640625 1.0234375 3.9453125 C0 2 0 2 0 0 Z " fill="#462EB4" transform="translate(481,551)"/>
<path d="M0 0 C0.99 0.33 1.98 0.66 3 1 C-0.19668988 3.6486859 -3.39486597 5.93992341 -7 8 C-6.67 6.68 -6.34 5.36 -6 4 C-4.35 3.67 -2.7 3.34 -1 3 C-0.67 2.01 -0.34 1.02 0 0 Z " fill="#A1A2A9" transform="translate(778,545)"/>
<path d="M0 0 C1.12588014 0.95729916 2.2506715 1.91587895 3.375 2.875 C4.00148438 3.40867187 4.62796875 3.94234375 5.2734375 4.4921875 C6.55836651 5.61432007 7.79371975 6.79371975 9 8 C6.1875 7.8125 6.1875 7.8125 3 7 C1.14766715 4.59196729 0 3.07258075 0 0 Z " fill="#4F1BA4" transform="translate(561,539)"/>
<path d="M0 0 C0.99 0.33 1.98 0.66 3 1 C2.21258141 2.46063143 1.4199095 3.91843173 0.625 5.375 C0.18414063 6.18710937 -0.25671875 6.99921875 -0.7109375 7.8359375 C-2 10 -2 10 -4 12 C-3.4140625 5.84765625 -3.4140625 5.84765625 -3 4 C-2.34 3.67 -1.68 3.34 -1 3 C-0.67 2.01 -0.34 1.02 0 0 Z " fill="#3C2C9D" transform="translate(561,450)"/>
<path d="M0 0 C0.33 0.99 0.66 1.98 1 3 C-2.63 3 -6.26 3 -10 3 C-8.0130571 -0.97388579 -3.91761109 -0.08705802 0 0 Z " fill="#1A1358" transform="translate(623,400)"/>
<path d="M0 0 C5.49152542 0.61016949 5.49152542 0.61016949 7.875 2.4375 C9 4 9 4 9 6 C5.06326356 4.68775452 2.77280706 3.08089673 0 0 Z " fill="#9A9AA1" transform="translate(276,569)"/>
<path d="M0 0 C4.455 2.97 4.455 2.97 9 6 C8.01 6.495 8.01 6.495 7 7 C4.64018187 6.06421005 2.30368736 5.06652192 0 4 C0 2.68 0 1.36 0 0 Z " fill="#97999F" transform="translate(243,517)"/>
<path d="M0 0 C4.24822374 0.47202486 6.19989709 2.96655518 9 6 C4.9666466 6 3.16482462 4.39120082 0 2 C0 1.34 0 0.68 0 0 Z " fill="#95949D" transform="translate(731,437)"/>
<path d="M0 0 C1.32 0.33 2.64 0.66 4 1 C4 1.99 4 2.98 4 4 C4.99 4.33 5.98 4.66 7 5 C7 5.66 7 6.32 7 7 C7.66 7.33 8.32 7.66 9 8 C8.01 8 7.02 8 6 8 C4.39453125 6.25 4.39453125 6.25 2.8125 4 C2.28269531 3.2575 1.75289063 2.515 1.20703125 1.75 C0.80871094 1.1725 0.41039062 0.595 0 0 Z " fill="#442DB9" transform="translate(449,577)"/>
<path d="M0 0 C4.455 2.97 4.455 2.97 9 6 C8.01 6.495 8.01 6.495 7 7 C3.9533855 5.98446183 1.68856164 4.79237442 -1 3 C-0.67 2.01 -0.34 1.02 0 0 Z " fill="#979AA2" transform="translate(280,543)"/>
<path d="M0 0 C1.65 0 3.3 0 5 0 C5.66 1.98 6.32 3.96 7 6 C3.63279613 4.60667426 2.0140476 3.0210714 0 0 Z " fill="#5C21BB" transform="translate(530,568)"/>
<path d="M0 0 C2.4375 0.625 2.4375 0.625 5 2 C5.8125 5.125 5.8125 5.125 6 8 C1.125 3.375 1.125 3.375 0 0 Z " fill="#382B9C" transform="translate(443,569)"/>
<path d="M0 0 C1.32 0.33 2.64 0.66 4 1 C4 1.66 4 2.32 4 3 C5.45833358 4.62514468 5.45833358 4.62514468 7 6 C6.67 6.99 6.34 7.98 6 9 C4.02 6.03 2.04 3.06 0 0 Z " fill="#3730A4" transform="translate(436,560)"/>
<path d="M0 0 C2.64 1.65 5.28 3.3 8 5 C5.13822943 6.43088528 3.06624227 5.59991697 0 5 C0 3.35 0 1.7 0 0 Z " fill="#93959A" transform="translate(217,499)"/>
<path d="M0 0 C-0.33 1.32 -0.66 2.64 -1 4 C-2.98 4.33 -4.96 4.66 -7 5 C-2.25 0 -2.25 0 0 0 Z " fill="#9B9CA3" transform="translate(768,526)"/>
<path d="M0 0 C-1.65 1.32 -3.3 2.64 -5 4 C-5.99 3.34 -6.98 2.68 -8 2 C-5.44123378 -0.55876622 -3.37797483 -1.68898741 0 0 Z " fill="#B9BAC0" transform="translate(795,510)"/>
<path d="M0 0 C2.625 0.9375 2.625 0.9375 5 2 C4.67 2.99 4.34 3.98 4 5 C-0.875 3.25 -0.875 3.25 -2 1 C-1.34 0.67 -0.68 0.34 0 0 Z " fill="#1F95CA" transform="translate(434,440)"/>
<path d="M0 0 C0.66 0.33 1.32 0.66 2 1 C0.68 2.65 -0.64 4.3 -2 6 C-3.32 5.67 -4.64 5.34 -6 5 C-4.02 3.35 -2.04 1.7 0 0 Z " fill="#8E9298" transform="translate(279,417)"/>
<path d="M0 0 C2.31 1.98 4.62 3.96 7 6 C3.00095031 6 1.19799578 4.27413033 -2 2 C-1.34 1.34 -0.68 0.68 0 0 Z " fill="#83848A" transform="translate(253,551)"/>
<path d="M0 0 C2.5 2.3125 2.5 2.3125 5 5 C5 5.99 5 6.98 5 8 C3.0625 7.375 3.0625 7.375 1 6 C0.25 2.875 0.25 2.875 0 0 Z " fill="#1973A5" transform="translate(477,420)"/>
<path d="M0 0 C2.35981813 0.93578995 4.69631264 1.93347808 7 3 C4 4 4 4 0 4 C0 3.34 0 2.68 0 2 C-0.66 1.67 -1.32 1.34 -2 1 C-1.34 0.67 -0.68 0.34 0 0 Z " fill="#8D8B95" transform="translate(734,412)"/>
<path d="M0 0 C3.65316671 1.24976756 4.78065836 1.67098753 7 5 C4.69 4.34 2.38 3.68 0 3 C0 2.01 0 1.02 0 0 Z " fill="#187CA5" transform="translate(465,411)"/>
<path d="M0 0 C-3.3 1.32 -6.6 2.64 -10 4 C-10.66 3.34 -11.32 2.68 -12 2 C-10.37787941 1.47026689 -8.75218416 0.95146893 -7.125 0.4375 C-6.22007812 0.14746094 -5.31515625 -0.14257812 -4.3828125 -0.44140625 C-2 -1 -2 -1 0 0 Z " fill="#5973F6" transform="translate(567,405)"/>
<path d="M0 0 C0.66 0.66 1.32 1.32 2 2 C0.68 1.67 -0.64 1.34 -2 1 C-1.34 0.67 -0.68 0.34 0 0 Z " fill="#000000" transform="translate(564,400)"/>
<path d="M0 0 C4 1 4 1 4 1 Z " fill="#000000" transform="translate(574,400)"/>
<path d="M0 0 C3 1 3 1 3 1 Z " fill="#000000" transform="translate(333,588)"/>
<path d="M0 0 C3 1 3 1 3 1 Z " fill="#000000" transform="translate(435,400)"/>
<path d="M0 0 C3 1 3 1 3 1 Z " fill="#000000" transform="translate(401,400)"/>
<path d="M0 0 C2 1 2 1 2 1 Z " fill="#000000" transform="translate(603,517)"/>
<path d="M0 0 C2 1 2 1 2 1 Z " fill="#000000" transform="translate(434,445)"/>
<path d="M0 0 C2 1 2 1 2 1 Z " fill="#000000" transform="translate(560,402)"/>
<path d="M0 0 C2 1 2 1 2 1 Z " fill="#000000" transform="translate(685,400)"/>
<path d="M0 0 C2 1 2 1 2 1 Z " fill="#000000" transform="translate(677,400)"/>
<path d="M0 0 C2 1 2 1 2 1 Z " fill="#000000" transform="translate(672,400)"/>
<path d="M0 0 C2 1 2 1 2 1 Z " fill="#000000" transform="translate(645,400)"/>
<path d="M0 0 C2 1 2 1 2 1 Z " fill="#000000" transform="translate(569,400)"/>
<path d="M0 0 C2 1 2 1 2 1 Z " fill="#000000" transform="translate(421,400)"/>
<path d="M0 0 C2 1 2 1 2 1 Z " fill="#000000" transform="translate(405,400)"/>
<path d="M0 0 C2 1 2 1 2 1 Z " fill="#000000" transform="translate(361,400)"/>
<path d="" fill="#000000" transform="translate(0,0)"/>
<path d="" fill="#000000" transform="translate(0,0)"/>
<path d="" fill="#000000" transform="translate(0,0)"/>
<path d="" fill="#000000" transform="translate(0,0)"/>
<path d="" fill="#000000" transform="translate(0,0)"/>
<path d="" fill="#000000" transform="translate(0,0)"/>
<path d="" fill="#000000" transform="translate(0,0)"/>
<path d="" fill="#000000" transform="translate(0,0)"/>
<path d="" fill="#000000" transform="translate(0,0)"/>
<path d="" fill="#000000" transform="translate(0,0)"/>
<path d="" fill="#000000" transform="translate(0,0)"/>
<path d="" fill="#000000" transform="translate(0,0)"/>
<path d="" fill="#000000" transform="translate(0,0)"/>
<path d="" fill="#000000" transform="translate(0,0)"/>
<path d="" fill="#000000" transform="translate(0,0)"/>
<path d="" fill="#000000" transform="translate(0,0)"/>
<path d="" fill="#000000" transform="translate(0,0)"/>
<path d="" fill="#000000" transform="translate(0,0)"/>
<path d="" fill="#000000" transform="translate(0,0)"/>
<path d="" fill="#000000" transform="translate(0,0)"/>
<path d="" fill="#000000" transform="translate(0,0)"/>
<path d="" fill="#000000" transform="translate(0,0)"/>
<path d="" fill="#000000" transform="translate(0,0)"/>
<path d="" fill="#000000" transform="translate(0,0)"/>
<path d="" fill="#000000" transform="translate(0,0)"/>
<path d="" fill="#000000" transform="translate(0,0)"/>
<path d="" fill="#000000" transform="translate(0,0)"/>
<path d="" fill="#000000" transform="translate(0,0)"/>
<path d="" fill="#000000" transform="translate(0,0)"/>
<path d="" fill="#000000" transform="translate(0,0)"/>
<path d="" fill="#000000" transform="translate(0,0)"/>
<path d="" fill="#000000" transform="translate(0,0)"/>
<path d="" fill="#000000" transform="translate(0,0)"/>
<path d="" fill="#000000" transform="translate(0,0)"/>
<path d="" fill="#000000" transform="translate(0,0)"/>
<path d="" fill="#000000" transform="translate(0,0)"/>
<path d="" fill="#000000" transform="translate(0,0)"/>
<path d="" fill="#000000" transform="translate(0,0)"/>
<path d="" fill="#000000" transform="translate(0,0)"/>
<path d="" fill="#000000" transform="translate(0,0)"/>
<path d="" fill="#000000" transform="translate(0,0)"/>
<path d="" fill="#000000" transform="translate(0,0)"/>
<path d="" fill="#000000" transform="translate(0,0)"/>
<path d="" fill="#000000" transform="translate(0,0)"/>
<path d="" fill="#000000" transform="translate(0,0)"/>
<path d="" fill="#000000" transform="translate(0,0)"/>
<path d="" fill="#000000" transform="translate(0,0)"/>
<path d="" fill="#000000" transform="translate(0,0)"/>
<path d="" fill="#000000" transform="translate(0,0)"/>
<path d="" fill="#000000" transform="translate(0,0)"/>
<path d="" fill="#000000" transform="translate(0,0)"/>
<path d="" fill="#000000" transform="translate(0,0)"/>
<path d="" fill="#000000" transform="translate(0,0)"/>
<path d="" fill="#000000" transform="translate(0,0)"/>
<path d="" fill="#000000" transform="translate(0,0)"/>
<path d="" fill="#000000" transform="translate(0,0)"/>
<path d="" fill="#000000" transform="translate(0,0)"/>
<path d="" fill="#000000" transform="translate(0,0)"/>
<path d="" fill="#000000" transform="translate(0,0)"/>
<path d="" fill="#000000" transform="translate(0,0)"/>
<path d="" fill="#000000" transform="translate(0,0)"/>
<path d="" fill="#000000" transform="translate(0,0)"/>
<path d="" fill="#000000" transform="translate(0,0)"/>
<path d="" fill="#000000" transform="translate(0,0)"/>
<path d="" fill="#000000" transform="translate(0,0)"/>
<path d="" fill="#000000" transform="translate(0,0)"/>
<path d="" fill="#000000" transform="translate(0,0)"/>
<path d="" fill="#000000" transform="translate(0,0)"/>
<path d="" fill="#000000" transform="translate(0,0)"/>
<path d="" fill="#000000" transform="translate(0,0)"/>
<path d="" fill="#000000" transform="translate(0,0)"/>
<path d="" fill="#000000" transform="translate(0,0)"/>
<path d="" fill="#000000" transform="translate(0,0)"/>
<path d="" fill="#000000" transform="translate(0,0)"/>
<path d="" fill="#000000" transform="translate(0,0)"/>
<path d="" fill="#000000" transform="translate(0,0)"/>
<path d="" fill="#000000" transform="translate(0,0)"/>
<path d="" fill="#000000" transform="translate(0,0)"/>
<path d="" fill="#000000" transform="translate(0,0)"/>
<path d="" fill="#000000" transform="translate(0,0)"/>
<path d="" fill="#000000" transform="translate(0,0)"/>
<path d="" fill="#000000" transform="translate(0,0)"/>
<path d="" fill="#000000" transform="translate(0,0)"/>
<path d="" fill="#000000" transform="translate(0,0)"/>
<path d="" fill="#000000" transform="translate(0,0)"/>
<path d="" fill="#000000" transform="translate(0,0)"/>
<path d="" fill="#000000" transform="translate(0,0)"/>
<path d="" fill="#000000" transform="translate(0,0)"/>
<path d="" fill="#000000" transform="translate(0,0)"/>
<path d="" fill="#000000" transform="translate(0,0)"/>
</svg>
